<svg xmlns="http://www.w3.org/2000/svg" width="960.022" height="718.317" viewBox="0 0 960.022 718.317">
  <g id="Group_55" data-name="Group 55" transform="translate(624.746 51.468)">
    <ellipse id="Ellipse_1" data-name="Ellipse 1" cx="82.673" cy="7.725" rx="82.673" ry="7.725" transform="translate(-381.215 651.399)" fill="#fdddcc"/>
    <ellipse id="Ellipse_2" data-name="Ellipse 2" cx="82.673" cy="7.725" rx="82.673" ry="7.725" transform="translate(43.52 651.399)" fill="#fdddcc" opacity="0.394"/>
    <g id="Group_24" data-name="Group 24" transform="translate(-612.165 57.334)">
      <path id="Path_49" data-name="Path 49" d="M294.17,57.36c-10.33-63.5-61.326-57.9-107.079-57.8L-566.99,1.114c-71.182.145-64.293,102.91-8.557,102.794,32.045-.066,44.23,60.107-11.175,60.22-36.965.077-34.139,52.173-3.579,52.108" transform="translate(618.865 0.606)" fill="none" stroke="#c8dbfb" stroke-linecap="round" stroke-linejoin="round" stroke-width="1" stroke-dasharray="4"/>
      <path id="Path_50" data-name="Path 50" d="M-590.593,104.391a10.242,10.242,0,0,1-8.375,11.821,10.244,10.244,0,0,1-11.821-8.375,10.242,10.242,0,0,1,8.377-11.821A10.241,10.241,0,0,1-590.593,104.391Z" transform="translate(627.896 110.508)" fill="#5193f4"/>
      <path id="Path_51" data-name="Path 51" d="M-176.512,35.077a10.245,10.245,0,0,1-11.915,8.242,10.243,10.243,0,0,1-8.242-11.913,10.245,10.245,0,0,1,11.915-8.242A10.243,10.243,0,0,1-176.512,35.077Z" transform="translate(1099.631 27.494)" fill="#5193f4"/>
    </g>
    <g id="Group_42" data-name="Group 42" transform="translate(-624.746 -18.639)">
      <g id="Group_25" data-name="Group 25" transform="translate(78.551 117.195)">
        <path id="Path_52" data-name="Path 52" d="M-512.267,117.51a178.449,178.449,0,0,1-6.268,24.472c-5.669,17.306-13.5,33.97-21.413,50.421-4.129,8.6-20.878,28.494-29.863,32.28,1.048-22.44,1.134-48.645-1.476-71.3-2.5-21.82,5.348-38.356-3.209-58.592-1.091-2.588-2.225-5.177-3.359-7.765-4.257-9.626-8.471-19.3-9.8-29.67-1.711-13.156,2.374-28.152,13.755-35,8.193-4.92,18.868-4.663,27.617-.792s15.766,10.953,21.092,18.889C-510.277,62.619-507.582,91.241-512.267,117.51Z" transform="translate(588.026 -18.663)" fill="#5193f4"/>
        <path id="Path_53" data-name="Path 53" d="M-571.132,30.9c16.752,23.653,18.2,51.212,19.657,80.159a154.589,154.589,0,0,1-19.807,83.475" transform="translate(607.1 -4.728)" fill="none" stroke="#0b43a4" stroke-linecap="round" stroke-linejoin="round" stroke-width="1"/>
      </g>
      <g id="Group_26" data-name="Group 26" transform="translate(49.364 454.675)">
        <path id="Path_54" data-name="Path 54" d="M-537.212,301.463c-11.74-10.375-23.619-20.908-32.293-33.955-7.556-11.361-12.433-24.265-19.024-36.212-4.266-7.731-9.3-15.18-11.774-23.657s-1.878-18.517,4.146-24.975c6.283-6.734,17.09-7.767,25.623-4.3s15.051,10.642,20.031,18.391a87.644,87.644,0,0,1,12.876,34.073c1.668,10.957,1.243,22.153,2.943,33.106a110.784,110.784,0,0,0,9.34,29.352c3.921,8.48,13.855,23.6,16.39,32.289C-515.974,329.092-532.208,305.887-537.212,301.463Z" transform="translate(601.67 -176.425)" fill="#00ad9f"/>
        <path id="Path_55" data-name="Path 55" d="M-590.727,184.581c11.162,4.886,15.6,18.2,17.931,30.158,2.65,13.614,2.062,28.353,8.3,40.739,11.755,23.33,27.061,49.888,38.435,57.822" transform="translate(614.136 -167.133)" fill="none" stroke="#00ad9f" stroke-linecap="round" stroke-linejoin="round" stroke-width="1" style="mix-blend-mode: multiply;isolation: isolate"/>
      </g>
      <g id="Group_27" data-name="Group 27" transform="translate(24.128 544.675)">
        <path id="Path_56" data-name="Path 56" d="M-581.552,221.618c-9.742-3.848-22.752-5.429-29,2.98-5.23,7.04-2.522,17.019,1.091,25.009,3.048,6.747,6.923,13.607,13.355,17.274,4.394,2.5,9.543,3.258,14.563,3.855a349.045,349.045,0,0,0,42.223,2.443c16.35-.047,36.156,6.631,49.682,16.827C-507,257.736-548.763,234.567-581.552,221.618Z" transform="translate(613.467 -218.497)" fill="#0056ec"/>
        <path id="Path_57" data-name="Path 57" d="M-606.538,229.762c12.4.528,24.915,1.4,36.817,4.92,12.172,3.6,58.992,25.086,66.313,34.231" transform="translate(621.361 -205.663)" fill="none" stroke="#0b43a4" stroke-linecap="round" stroke-linejoin="round" stroke-width="1"/>
      </g>
      <g id="Group_28" data-name="Group 28" transform="translate(0 326.338)">
        <path id="Path_58" data-name="Path 58" d="M-462.435,271.671a82.528,82.528,0,0,0-57.726-36.847c-17.242-2.317-34.984.909-52-2.68A67.092,67.092,0,0,1-615.5,201.157a67.167,67.167,0,0,1-6.52-52.887c4-13.312,13.13-25.92,26.352-30.192,7.2-2.317,15.083-2,22.444-.227a62.451,62.451,0,0,1,18.923,8.178c13.312,8.428,24.057,21.4,32.146,35.168,7.337,12.516,25.443,32.009,37.756,44.685,7.224,7.406,12.471,12.471,12.471,12.471C-463.479,228.849-467.432,259.155-462.435,271.671Z" transform="translate(624.746 -116.431)" fill="#52d2bc"/>
        <path id="Path_59" data-name="Path 59" d="M-612.952,135.192c41.43,18.705,86.624,43.216,116.006,77.9" transform="translate(638.182 -95.059)" fill="none" stroke="#00ad9f" stroke-linecap="round" stroke-linejoin="round" stroke-width="1"/>
      </g>
      <g id="Group_29" data-name="Group 29" transform="translate(54.772 185.558)">
        <path id="Path_60" data-name="Path 60" d="M-517.052,224.692s-61.747-50.046-74.765-103.774c13.312,8.428,24.057,21.4,32.146,35.168,7.337,12.516,25.443,32.009,37.756,44.685C-520.46,207.495-518.847,215.378-517.052,224.692Z" transform="translate(607.487 29.46)" fill="#5275a0" opacity="0.2" style="mix-blend-mode: multiply;isolation: isolate"/>
        <path id="Path_61" data-name="Path 61" d="M-523.951,105.577c-5.669,17.306-13.5,33.97-21.413,50.42-4.129,8.6-20.878,28.494-29.863,32.28,1.048-22.44,1.133-48.645-1.476-71.3-2.5-21.82,5.348-38.356-3.209-58.592-1.091-2.588-2.225-5.177-3.359-7.765.792.257,1.562.535,2.31.856,14.076,6.032,20.579,20.921,21.777,35.382,1.005,11.937-1.155,23.895-2.76,35.767-.749,5.476-1.348,11.081-.171,16.45a.5.5,0,0,1,.043.171c1.476,6.4,10.824,6.033,12.022-.449l3.744-19.873c1.112-5.947,2.332-12.172,7.209-16.322a10.3,10.3,0,0,1,6.931-2.588C-528.144,100.164-525.62,102.518-523.951,105.577Z" transform="translate(617.222 -50.621)" fill="#5275a0" opacity="0.2" style="mix-blend-mode: multiply;isolation: isolate"/>
        <path id="Path_62" data-name="Path 62" d="M-508.7,287.625c-9.752-50.93-14.88-58.778-10.591-71.545,5.468-16.273,2.4-32.631,7.551-49s8.668-33.977,4.507-50.63c-1.316-5.265-3.981-11-10.307-11.222a10.3,10.3,0,0,0-6.94,2.58c-4.873,4.154-6.105,10.377-7.218,16.324L-535.422,144c-1.213,6.465-10.553,6.845-12.029.436l-.036-.163c-1.2-5.38-.582-10.98.154-16.444,1.6-11.883,3.763-23.835,2.772-35.784-1.2-14.461-7.7-29.352-21.787-35.369a24.9,24.9,0,0,0-15.888-1.269c-14.7,3.774-18.5,18.14-16.348,30.406,1.517,8.632,5.568,16.57,9.231,24.532,8.942,19.449,2.383,37.286,3.619,58.656C-582.317,227.987-508.7,287.625-508.7,287.625Z" transform="translate(599.142 -46.022)" fill="#7ee8d4"/>
        <path id="Path_63" data-name="Path 63" d="M-587.523,62.218c7.252,36.238,14.585,72.741,28.665,106.91,4.129,10.022,6.146,23.21,30.039,50.47" transform="translate(612.378 -37.41)" fill="none" stroke="#00ad9f" stroke-linecap="round" stroke-linejoin="round" stroke-width="1"/>
      </g>
      <g id="Group_30" data-name="Group 30" transform="translate(210.96 61.708)">
        <path id="Path_64" data-name="Path 64" d="M-374.572,150.674c-7.509-8.578-14.439-17.306-21.734-25.713-4.728-5.455-9.6-10.781-14.91-15.83-2.631-2.524-5.348-4.963-8.215-7.337A230.657,230.657,0,0,0-475.5,67.545c-12.193-5.22-25.071-9.519-35.425-17.841-10.354-8.3-17.8-21.948-14.354-34.762,2.5-9.241,10.354-16.429,19.36-19.723,8.985-3.273,18.953-3.016,28.3-1.005,26.1,5.626,47.9,24.387,62.721,46.57.257.385.535.792.792,1.2,10.867,16.579,18.461,35.018,25.071,53.8,2.118,6.032,4.129,12.108,6.118,18.162C-379.92,122.993-370.721,141.71-374.572,150.674Z" transform="translate(526.129 7.275)" fill="#5193f4"/>
        <path id="Path_65" data-name="Path 65" d="M-511.088,3.6c28.47,5.429,48.624,24.282,69.742,44.136a154.574,154.574,0,0,1,43.6,73.887" transform="translate(543.263 19.667)" fill="none" stroke="#0b43a4" stroke-linecap="round" stroke-linejoin="round" stroke-width="1"/>
      </g>
      <g id="Group_31" data-name="Group 31" transform="translate(320.214 59.372)">
        <path id="Path_66" data-name="Path 66" d="M-454.487,98.73a33.686,33.686,0,0,0,.406,8.9C-461.2,106-466.146,94.944-469.4,82.9a185.9,185.9,0,0,1-5.262-30.205,130.683,130.683,0,0,1,2.374-36.944c10.867,16.579,18.461,35.018,25.071,53.8q-3.4,10.108-5.819,20.451A59.458,59.458,0,0,0-454.487,98.73Z" transform="translate(475.056 35.842)" fill="#5275a0" opacity="0.2" style="mix-blend-mode: multiply;isolation: isolate"/>
        <path id="Path_67" data-name="Path 67" d="M-408.305,23.417c-2.409,10.677-8.86,19.9-14.54,29.26-3,4.929-5.793,10-8.4,15.13A229.986,229.986,0,0,0-450.2,119.625c-1.386,5.885-2.158,11.654-1.046,17.629-14.04-3.2-19.627-43.094-20.581-54.953a129.3,129.3,0,0,1,10.745-62.791c3.84-8.587,8.792-17.015,16.425-22.513,7.611-5.5,18.4-7.429,26.466-2.635,4.862,2.886,7.973,7.68,9.5,13.13A32.608,32.608,0,0,1-408.305,23.417Z" transform="translate(478.283 8.367)" fill="#52d2bc"/>
        <path id="Path_68" data-name="Path 68" d="M-462.668,117.792c-8.728-21.92-3.425-68.317,10.576-97.478,4.218-8.786,10.223-17.021,18.641-21.933" transform="translate(484.328 16.054)" fill="none" stroke="#00ad9f" stroke-linecap="round" stroke-linejoin="round" stroke-width="1"/>
      </g>
      <g id="Group_32" data-name="Group 32" transform="translate(359.891 74.592)">
        <path id="Path_69" data-name="Path 69" d="M-426.208,14.972c-2.409,10.677-8.861,19.9-14.54,29.26-3,4.929-5.793,10-8.4,15.13a51,51,0,0,1-7.179-21.037c-1.181-12.427,3.566-25.739,13.676-33.055A36.667,36.667,0,0,1-426.595-.954,32.609,32.609,0,0,1-426.208,14.972Z" transform="translate(456.509 1.592)" fill="#5275a0" opacity="0.2" style="mix-blend-mode: multiply;isolation: isolate"/>
        <path id="Path_70" data-name="Path 70" d="M-348.873,108.159a45.316,45.316,0,0,1-3.635,11.813c-6.225,13.47-19.287,25.035-38.869,34.439,0,0-1.091-21.308-1.318-27.011-.954-24.421-27.465-37.936-44.232-55.747-8.542-9.087-15.015-20.56-16.219-32.986-1.183-12.427,3.566-25.739,13.676-33.055C-431-.5-419.911-1.84-409.483-1.044c16.81,1.339,33.78,8.381,44.23,21.512a19.067,19.067,0,0,1,1.228,1.547c6.407,8.745,9.7,19.4,12.108,30.008C-347.737,70.4-345.85,89.529-348.873,108.159Z" transform="translate(460.138 1.252)" fill="#00ad9f"/>
        <path id="Path_71" data-name="Path 71" d="M-443.48,8.081c18.348,9.489,36.728,20.962,47.413,38.64,14.908,24.66,11.659,56.748.163,83.171" transform="translate(471.351 11.884)" fill="none" stroke="#00ad9f" stroke-linecap="round" stroke-linejoin="round" stroke-width="1" style="mix-blend-mode: multiply;isolation: isolate"/>
      </g>
      <g id="Group_33" data-name="Group 33" transform="translate(771.879 161.337)">
        <path id="Path_72" data-name="Path 72" d="M-257.673,219.517c11.695-19.253,5.722-44.018,9.793-66.173a73.127,73.127,0,0,1,26.164-43.594c8.51-6.76,20.463-11.59,30.079-6.522,2.081,1.1,4.559,2.644,6.565,1.41a5.244,5.244,0,0,0,1.957-3.6c2.439-11.967-3.314-25.037,1.386-36.308,2.533-6.069,7.767-10.6,13.312-14.136a72.594,72.594,0,0,1,35.87-11.254c3.363-.137,6.865-.006,9.872,1.5,5.438,2.725,7.923,9.494,7.194,15.533s-4.058,11.44-7.755,16.271c-12.283,16.059-30.278,29.916-32.65,49.995a13.026,13.026,0,0,0,.864,7.489c1.125,2.195,3.222,3.761,4.4,5.926,3.782,6.952-3.525,14.837-10.664,18.256a61.545,61.545,0,0,1-20.786,5.75c-4.954.464-10.553.582-13.922,4.242-6.219,6.756.926,17.556-.379,26.644-.813,5.673-4.929,10.253-9.059,14.226a162.686,162.686,0,0,1-25.028,19.738c-7.265,4.653-14.953,8.766-21.392,14.508s-11.646,13.507-12.067,22.123" transform="translate(263.917 -39.299)" fill="#52d2bc"/>
        <path id="Path_73" data-name="Path 73" d="M-253.793,192.139c1.908-9.331,6.251-17.958,10.548-26.46,6.717-13.284,13.565-26.763,23.709-37.658,7.7-8.272,17.094-14.818,24.928-22.966a85.531,85.531,0,0,0,14.08-19.548c2.026-3.87,3.778-7.936,6.512-11.344,3.247-4.045,7.686-6.927,11.549-10.388a49.487,49.487,0,0,0,12.24-16.882" transform="translate(275.45 -30.647)" fill="none" stroke="#00ad9f" stroke-linecap="round" stroke-linejoin="round" stroke-width="1"/>
      </g>
      <g id="Group_34" data-name="Group 34" transform="translate(764.405 295.63)">
        <path id="Path_74" data-name="Path 74" d="M-85.752,161.363c-2.631,10.14-6.546,20.173-13.263,28.216a60.192,60.192,0,0,1-16.728,13.5,94.056,94.056,0,0,1-10.118,4.941,121.473,121.473,0,0,1-42.292,9.37c-21.135.792-42.869-3.872-63.149,2.161a62.22,62.22,0,0,0-24.921,14.439,60.632,60.632,0,0,0-11.188,14.14l2.76-17.541c5.113-18.868,10.332-38.077,20.771-54.613,6.738-10.717,15.488-20.044,24.793-28.622,14.867-13.734,31.36-25.82,49.565-34.655,14.718-7.145,31.061-12.172,47.319-10.183,16.236,1.968,32.195,12.236,37.265,27.788C-81.687,140.292-83.1,151.2-85.752,161.363Z" transform="translate(267.411 -102.076)" fill="#5193f4"/>
        <path id="Path_75" data-name="Path 75" d="M-259.661,203.289a128.288,128.288,0,0,1,65.1-49.419c16.393-5.474,33.728-7.553,50.335-12.345s33.172-12.927,42.906-27.208" transform="translate(276.24 -88.133)" fill="none" stroke="#0b43a4" stroke-linecap="round" stroke-linejoin="round" stroke-width="1"/>
      </g>
      <g id="Group_35" data-name="Group 35" transform="translate(785.799 476.394)">
        <path id="Path_76" data-name="Path 76" d="M-251.991,289.477c.924-23.593,13.12-45.374,27.931-63.76,12.354-15.336,27.26-29.371,45.672-36.36,5.767-2.188,12.1-3.658,18.089-2.186s11.421,6.6,11.53,12.767c.092,5.2-3.4,9.748-7.079,13.43-12.1,12.123-27.749,19.9-42.411,28.761-25.2,15.231-49.15,35.562-59.151,63.256" transform="translate(257.41 -186.578)" fill="#52d2bc"/>
        <path id="Path_77" data-name="Path 77" d="M-250.519,261.723c15.4-34.353,55.268-65.068,81.565-68.905" transform="translate(265.26 -179.469)" fill="none" stroke="#00ad9f" stroke-linecap="round" stroke-linejoin="round" stroke-width="1"/>
      </g>
      <g id="Group_36" data-name="Group 36" transform="translate(781.587 546.154)">
        <path id="Path_78" data-name="Path 78" d="M-259.377,271.084c-.21-3.953,12.683-14.29,15.59-16.925a149.325,149.325,0,0,1,55.448-31.686c8.18-2.569,16.87-4.434,25.054-2.46s15.691,8.679,16.5,17.507c.779,8.561-4.965,16.936-12.294,21.079s-15.9,4.768-24.072,4.293c-12.63-.736-25.028-3.874-37.7-3.778S-251.329,260.493-259.377,271.084Z" transform="translate(259.379 -219.188)" fill="#00ad9f"/>
        <path id="Path_79" data-name="Path 79" d="M-253.239,248.73c25.912-14.035,65.085-23.172,93.525-19.73" transform="translate(266.374 -208.839)" fill="none" stroke="#00ad9f" stroke-linecap="round" stroke-linejoin="round" stroke-width="1" style="mix-blend-mode: multiply;isolation: isolate"/>
      </g>
      <g id="Group_38" data-name="Group 38" transform="translate(448.434 19.746)">
        <path id="Path_80" data-name="Path 80" d="M-392.4,96.592a45.309,45.309,0,0,1-3.635,11.813,205.774,205.774,0,0,1-19.015-75.331A41.679,41.679,0,0,1-408.776,8.9a19.053,19.053,0,0,1,1.228,1.547c6.407,8.745,9.7,19.4,12.108,30.008C-391.26,58.836-389.373,77.962-392.4,96.592Z" transform="translate(415.118 67.665)" fill="#5275a0" opacity="0.2" style="mix-blend-mode: multiply;isolation: isolate"/>
        <path id="Path_81" data-name="Path 81" d="M-308.233,136.286c19.347-6.871,39.438-12.352,57.026-22.943,5.318-3.2,10.444-6.927,14.219-11.857s6.095-11.214,5.254-17.366c-.856-6.253-4.858-12.243-3.51-18.41.888-4.067,3.936-7.241,6.27-10.687a34.1,34.1,0,0,0,4.375-28.4C-227.631,16.43-235.27,8.275-239.617-1.43a46.837,46.837,0,0,1-3.622-25.461c-16.228.218-31.042,9.083-47,12.041-12.206,2.263-24.9,1.033-37,3.814-22.064,5.07-40.1,24.487-43.53,46.865a32.156,32.156,0,0,0-28.359,9.5,41.741,41.741,0,0,0-11.13,30.5c4.986,80.067,50.827,121.835,50.827,121.835S-315.611,138.906-308.233,136.286Z" transform="translate(420.57 26.891)" fill="#7ee8d4"/>
        <g id="Group_37" data-name="Group 37" transform="translate(44.377 19.15)">
          <path id="Path_82" data-name="Path 82" d="M-382.644,125.527c-2.011-19.753,4.89-39.275,12.818-57.478,7.727-17.738,16.617-35.128,28.552-50.358s27.1-28.289,45-35.63" transform="translate(407.332 17.939)" fill="none" stroke="#00ad9f" stroke-linecap="round" stroke-linejoin="round" stroke-width="1"/>
          <path id="Path_83" data-name="Path 83" d="M-374.3-12.275a159.238,159.238,0,0,0,3.977,55.944" transform="translate(416.207 24.391)" fill="none" stroke="#00ad9f" stroke-linecap="round" stroke-linejoin="round" stroke-width="1"/>
          <path id="Path_84" data-name="Path 84" d="M-371.385,21.323c20.11-12.9,51.047-20.733,74.9-19.364" transform="translate(420.56 40.431)" fill="none" stroke="#00ad9f" stroke-linecap="round" stroke-linejoin="round" stroke-width="1"/>
          <path id="Path_85" data-name="Path 85" d="M-394.373,12.469c24.209,10.208,25.206,45.808,25.852,55.922" transform="translate(394.373 52.579)" fill="none" stroke="#00ad9f" stroke-linecap="round" stroke-linejoin="round" stroke-width="1"/>
          <path id="Path_86" data-name="Path 86" d="M-379.2,35.685C-360.678,22.4-333.91,18.4-314.208,23.357" transform="translate(411.654 62.649)" fill="none" stroke="#00ad9f" stroke-linecap="round" stroke-linejoin="round" stroke-width="1"/>
          <path id="Path_87" data-name="Path 87" d="M-352.11-16.549a29.237,29.237,0,0,0-6.4,20.7" transform="translate(435.099 19.522)" fill="none" stroke="#00ad9f" stroke-linecap="round" stroke-linejoin="round" stroke-width="1"/>
          <path id="Path_88" data-name="Path 88" d="M-356.1-7.043c8.54-4.375,19.956-5.378,32.169-2.315" transform="translate(437.969 25.699)" fill="none" stroke="#00ad9f" stroke-linecap="round" stroke-linejoin="round" stroke-width="1"/>
        </g>
      </g>
      <g id="Group_39" data-name="Group 39" transform="translate(64.761)">
        <path id="Path_89" data-name="Path 89" d="M-578.306,24.589c2.276-.122,17.794-11.616,23.771-15.49a16.313,16.313,0,0,0,4.565-3.855A5.755,5.755,0,0,0-549.1-.418c-1.061-2.248-2.819-4.494-7.263-4.486-7.731.017-10.414,2.556-14.174,6.445C-582.976,14.4-578.306,24.589-578.306,24.589Z" transform="translate(611.91 71.684)" fill="#4a49ca"/>
        <path id="Path_90" data-name="Path 90" d="M-540.336,35.876c6.755,3.036,13.975,6.062,21.323,5.123,2.849-.366,5.96-1.66,6.909-4.372.811-2.317-.308-4.974-2.145-6.6a15.257,15.257,0,0,0-6.646-3c-9-2.195-21.621-.98-30.526,1.549C-551.422,28.575-544.369,34.064-540.336,35.876Z" transform="translate(643.515 106.757)" fill="#4a49ca"/>
        <path id="Path_91" data-name="Path 91" d="M-522.06-8.468c-3.014-1.9-6.345-4.45-6.34-8.013s3.731-6.3,7.305-6.317,6.89,1.932,9.577,4.289c11.37,9.981,9.951,21.364,9.951,21.364S-518.7-6.348-522.06-8.468Z" transform="translate(669.74 51.299)" fill="#4a49ca"/>
        <path id="Path_92" data-name="Path 92" d="M-517.074-23.735c-2.644-1.138-5.374-2.507-6.924-4.933a4.714,4.714,0,0,1-.719-4c.781-2.212,2.165-4.2,7.74-3.187,17.648,3.2,21.492,15.289,21.492,15.289S-512.387-21.722-517.074-23.735Z" transform="translate(673.717 36.121)" fill="#4a49ca"/>
        <path id="Path_93" data-name="Path 93" d="M-497.076-4.235a27.893,27.893,0,0,0,18.85-9.667,17.238,17.238,0,0,0,3.789-7.012,7.684,7.684,0,0,0-2.069-7.382c-2.477-2.135-6.409-1.793-9.139.011s-4.484,4.74-5.9,7.686C-493.439-16.672-497.076-4.235-497.076-4.235Z" transform="translate(705.425 43.355)" fill="#4a49ca"/>
        <path id="Path_94" data-name="Path 94" d="M-512.523,256.045q-25.709-22.664-51.422-45.327c-9.134-8.054-18.461-16.343-24.245-27.059-12.437-23.035-5.269-52.964,11.528-73.042s41.4-31.936,66.116-40.563,50.44-14.683,74-26.094c14.775-7.156,29.63-17.817,33.683-33.726a34.156,34.156,0,0,0-5.435-28.16A34.163,34.163,0,0,0-433.47-31.669" transform="translate(594.473 41.194)" fill="none" stroke="#0b43a4" stroke-linecap="round" stroke-linejoin="round" stroke-width="1"/>
        <path id="Path_95" data-name="Path 95" d="M-474.836-25.515c-4.685,14.382-22.926,23.131-31.251,35.587" transform="translate(695.16 48.204)" fill="none" stroke="#0b43a4" stroke-linecap="round" stroke-linejoin="round" stroke-width="1"/>
        <path id="Path_96" data-name="Path 96" d="M-522.1-17.783c3.592,3.795,7.9,6.929,11.03,11.109,6.623,8.833,7.175,23.18-2.623,32.081" transform="translate(676.922 57.012)" fill="none" stroke="#0b43a4" stroke-linecap="round" stroke-linejoin="round" stroke-width="1"/>
        <path id="Path_97" data-name="Path 97" d="M-565.245,19.854c15.122,11.654,35,19.419,54.079,20.16" transform="translate(627.768 99.888)" fill="none" stroke="#0b43a4" stroke-linecap="round" stroke-linejoin="round" stroke-width="1"/>
        <path id="Path_98" data-name="Path 98" d="M-580.061,60.755c-6.963-20.534.624-45.128,17.943-58.171" transform="translate(607.963 80.214)" fill="none" stroke="#0b43a4" stroke-linecap="round" stroke-linejoin="round" stroke-width="1"/>
      </g>
      <g id="Group_40" data-name="Group 40" transform="translate(643.392 41.883)">
        <path id="Path_99" data-name="Path 99" d="M-322.742-5.845c-.821-2.541-.781-5.662,1.1-7.562a5.577,5.577,0,0,1,5.928-1.328c15.036,6.612,13.411,30.073,13.411,30.073S-316.569,13.277-322.742-5.845Z" transform="translate(324.811 18.176)" fill="#4a49ca"/>
        <path id="Path_100" data-name="Path 100" d="M-322.278,12.68c-9.727,17.582,24.847,16.239,37.314,5.887C-284.964,18.567-313.9-2.452-322.278,12.68Z" transform="translate(323.981 43.592)" fill="#4a49ca"/>
        <path id="Path_101" data-name="Path 101" d="M-301.583-2.879c-2.349-3.217-3.181-8.011-.627-11.064,1.9-2.276,5.217-2.978,8.131-2.415a19.051,19.051,0,0,1,9.134,5.566c11.378,14.155,6.03,28.008,6.03,28.008S-297.739,2.39-301.583-2.879Z" transform="translate(346.999 16.542)" fill="#4a49ca"/>
        <path id="Path_102" data-name="Path 102" d="M-238.32,15.271c-.841-2.738-.642-6.08,1.485-8a6.81,6.81,0,0,1,5.059-1.512,15.439,15.439,0,0,1,5.17,1.544,16.509,16.509,0,0,1,7.962,7.915c4.276,8.807,1.373,19.708,1.373,19.708S-236.227,22.093-238.32,15.271Z" transform="translate(421.038 41.922)" fill="#4a49ca"/>
        <path id="Path_103" data-name="Path 103" d="M-243.072,28.142A22.2,22.2,0,0,0-266,24.452a11.744,11.744,0,0,0-4.9,3.679c-2.73,3.778-1.773,9.3,1.059,13s7.132,5.951,11.376,7.879c7.695,3.491,19.636,4.191,27.824,6.279C-230.641,55.288-230.675,39.03-243.072,28.142Z" transform="translate(382.6 61.313)" fill="#4a49ca"/>
        <path id="Path_104" data-name="Path 104" d="M-317.977-9.015c5.087,16.649,19.484,29.213,35.51,36.009s33.681,8.589,51.054,9.714,34.95,1.684,51.751,6.244c16.373,4.443,32.678,13.7,39.705,29.142,8.552,18.8.98,41.271-11.028,58.072s-28.175,30.338-39.793,47.411c-5.333,7.84-9.787,17.017-8.709,26.438,1.435,12.559,12.018,21.807,21.85,29.752" transform="translate(330.821 25.117)" fill="none" stroke="#0b43a4" stroke-linecap="round" stroke-linejoin="round" stroke-width="1"/>
        <path id="Path_105" data-name="Path 105" d="M-299.258-11.87C-287.745.867-278.542,20.782-276.3,37.8" transform="translate(352.145 21.865)" fill="none" stroke="#0b43a4" stroke-linecap="round" stroke-linejoin="round" stroke-width="1"/>
        <path id="Path_106" data-name="Path 106" d="M-317.354,13.77c6.582,1.748,13.252,3.506,20.063,3.523s14.7-3.754,19.6-8.488" transform="translate(331.53 45.417)" fill="none" stroke="#0b43a4" stroke-linecap="round" stroke-linejoin="round" stroke-width="1"/>
        <path id="Path_107" data-name="Path 107" d="M-233.3,10.677a34,34,0,0,1,10.236,22.915c.321,8.567-4.432,18.951-10.138,25.351" transform="translate(427.283 47.55)" fill="none" stroke="#0b43a4" stroke-linecap="round" stroke-linejoin="round" stroke-width="1"/>
        <path id="Path_108" data-name="Path 108" d="M-263.465,28.854C-251.15,40.194-240.424,49.362-226.729,59c6.251,4.4,18.66,10.031,24.168,8.58" transform="translate(392.92 68.257)" fill="none" stroke="#0b43a4" stroke-linecap="round" stroke-linejoin="round" stroke-width="1"/>
      </g>
      <g id="Group_41" data-name="Group 41" transform="translate(773.409 379.508)">
        <path id="Path_109" data-name="Path 109" d="M-120.542,158.409a94.069,94.069,0,0,1-10.118,4.941,121.475,121.475,0,0,1-42.292,9.37c-21.135.792-42.869-3.872-63.149,2.161a62.221,62.221,0,0,0-24.921,14.439c-.706.342-1.412.727-2.118,1.134-1.69-14.311,33.992-32.965,44.837-37.821a129.266,129.266,0,0,1,62.785-10.953c9.37.749,18.975,2.588,26.7,7.915A28.569,28.569,0,0,1-120.542,158.409Z" transform="translate(263.206 -141.287)" fill="#5275a0" opacity="0.2" style="mix-blend-mode: multiply;isolation: isolate"/>
        <path id="Path_110" data-name="Path 110" d="M-155.515,145.678c9.363.747,18.968,2.584,26.7,7.915s13.175,14.848,11.372,24.066c-2.1,10.739-13.2,17.723-24.064,19.043s-21.715-1.666-32.432-3.872a231.162,231.162,0,0,0-72.257-3.3c-6,.672-11.7,1.863-16.951,4.931-1.688-14.318,34.009-32.965,44.854-37.823A129.321,129.321,0,0,1-155.515,145.678Z" transform="translate(263.202 -136.731)" fill="#52d2bc"/>
        <path id="Path_111" data-name="Path 111" d="M-258.834,176.5c17.723-15.575,63.209-26.147,95.378-22.742,9.691,1.027,19.467,3.919,26.915,10.2" transform="translate(268.178 -127.803)" fill="none" stroke="#00ad9f" stroke-linecap="round" stroke-linejoin="round" stroke-width="1"/>
      </g>
    </g>
    <path id="Path_112" data-name="Path 112" d="M-274.307,82.444l173.028-.357a36.763,36.763,0,0,1,36.841,36.689h0a36.765,36.765,0,0,1-36.689,36.841l-118.359.244" transform="translate(399.214 152.143)" fill="none" stroke="#0b43a4" stroke-linecap="round" stroke-linejoin="round" stroke-width="1" stroke-dasharray="4"/>
    <path id="Path_113" data-name="Path 113" d="M-443.582,141.644l-121.007.248a20.754,20.754,0,0,0-20.71,20.8h0A20.752,20.752,0,0,0-564.5,183.4l35.282-.073" transform="translate(44.937 219.99)" fill="none" stroke="#0b43a4" stroke-linecap="round" stroke-linejoin="round" stroke-width="1" stroke-dasharray="4"/>
    <g id="Group_43" data-name="Group 43" transform="translate(-621.989 418.2)">
      <path id="Path_114" data-name="Path 114" d="M-593.254,200.838c-41.455.086-42.319,61.921,10.428,61.812s744.709-1.538,777.338-1.6,36.075-50.975-4.263-50.893c-80.275.167-82.942-38.118-38.37-38.21" transform="translate(623.457 -163.695)" fill="none" stroke="#c8dbfb" stroke-linecap="round" stroke-linejoin="round" stroke-width="1" stroke-dasharray="4"/>
      <path id="Path_115" data-name="Path 115" d="M-593.968,189.183A10.245,10.245,0,0,1-602.345,201a10.244,10.244,0,0,1-11.821-8.375,10.246,10.246,0,0,1,8.377-11.821A10.244,10.244,0,0,1-593.968,189.183Z" transform="translate(633.872 -153.763)" fill="#5193f4"/>
      <path id="Path_116" data-name="Path 116" d="M-240.885,176.61a10.246,10.246,0,0,1-8.377,11.821,10.244,10.244,0,0,1-11.821-8.377,10.244,10.244,0,0,1,8.377-11.819A10.244,10.244,0,0,1-240.885,176.61Z" transform="translate(1036.099 -168.087)" fill="#0b43a4"/>
    </g>
    <g id="Group_53" data-name="Group 53" transform="translate(-488.339 61.079)">
      <path id="Path_117" data-name="Path 117" d="M105.029,499.28l-643.656,1.328a15.551,15.551,0,0,1-15.582-15.518l-.879-426.407A15.549,15.549,0,0,1-539.57,43.1l643.656-1.328a15.548,15.548,0,0,1,15.58,15.518l.881,426.407A15.55,15.55,0,0,1,105.029,499.28Z" transform="translate(567.692 45.14)" fill="#5275a0" opacity="0.2" style="mix-blend-mode: multiply;isolation: isolate"/>
      <g id="Group_44" data-name="Group 44" transform="translate(0 78.764)">
        <path id="Path_118" data-name="Path 118" d="M99.138,495.471-544.519,496.8A15.549,15.549,0,0,1-560.1,481.284l-.879-426.41a15.549,15.549,0,0,1,15.518-15.582L98.194,37.964a15.548,15.548,0,0,1,15.58,15.518l.881,426.41A15.549,15.549,0,0,1,99.138,495.471Z" transform="translate(560.98 -37.964)" fill="#fff"/>
        <path id="Path_119" data-name="Path 119" d="M96.968,37.967l-640.9,1.322a16.924,16.924,0,0,0-16.889,16.959l.03,14.72L113.96,69.576l-.03-14.72A16.926,16.926,0,0,0,96.968,37.967Z" transform="translate(561.158 -37.961)" fill="#ef832b"/>
        <path id="Path_120" data-name="Path 120" d="M-543.086,479.347l96.836-.2-.879-425.864-113.762.235.843,408.958A16.916,16.916,0,0,0-543.086,479.347Z" transform="translate(561.081 -20.512)" fill="#fdddcc"/>
        <g id="Path_121" data-name="Path 121" transform="translate(561.063 -37.963)" fill="none" stroke-linecap="round" stroke-linejoin="round">
          <path d="M99.211,495.474-544.446,496.8a15.55,15.55,0,0,1-15.58-15.518l-.881-426.41a15.553,15.553,0,0,1,15.518-15.582L98.267,37.965a15.553,15.553,0,0,1,15.582,15.518l.879,426.41A15.551,15.551,0,0,1,99.211,495.474Z" stroke="none"/>
          <path d="M -544.4498291015625 494.8025512695312 L 99.20606231689453 493.4740600585938 C 102.8257293701172 493.4659729003906 106.2256469726562 492.0491333007812 108.7793960571289 489.4847412109375 C 111.3329772949219 486.9203796386719 112.7353134155273 483.51513671875 112.728141784668 479.8963928222656 L 111.8489761352539 53.48714447021484 C 111.8408966064453 49.87297821044922 110.4273147583008 46.4765625 107.8687286376953 43.92356109619141 C 105.3103942871094 41.37089538574219 101.9117279052734 39.96506118774414 98.29889678955078 39.96506118774414 L 98.27130889892578 39.96506118774414 L -545.3847045898438 41.29347991943359 C -549.0036010742188 41.30156326293945 -552.4032592773438 42.7183952331543 -554.9573364257812 45.28289413452148 C -557.5114135742188 47.84739303588867 -558.9140014648438 51.25264358520508 -558.9067993164062 54.87106323242188 L -558.0255126953125 481.2808837890625 C -558.0183715820312 484.8948059082031 -556.6053466796875 488.2910461425781 -554.046875 490.8440551757812 C -551.48876953125 493.396728515625 -548.090087890625 494.8025512695312 -544.4771118164062 494.8025512695312 L -544.4498291015625 494.8025512695312 M -544.4771118164062 496.8025817871094 C -553.0496215820312 496.8025817871094 -560.0084838867188 489.861083984375 -560.0255126953125 481.2848815917969 L -560.9067993164062 54.87522888183594 C -560.9239501953125 46.2885627746582 -553.975830078125 39.31272888183594 -545.38916015625 39.29347991943359 L 98.26714324951172 37.96506118774414 C 98.27762603759766 37.96504211425781 98.28842163085938 37.96503067016602 98.29889678955078 37.96503067016602 C 106.8712310791016 37.96503067016602 113.8297500610352 44.90645980834961 113.8489761352539 53.48264312744141 L 114.728141784668 479.8923034667969 C 114.745231628418 488.4788818359375 107.7993927001953 495.4548034667969 99.21056365966797 495.4740600585938 L -544.4456787109375 496.8025512695312 C -544.4561767578125 496.8025817871094 -544.4666748046875 496.8025817871094 -544.4771118164062 496.8025817871094 Z" stroke="none" fill="#0056ec"/>
        </g>
        <path id="Rectangle_11" data-name="Rectangle 11" d="M2.786,0H83.763A2.787,2.787,0,0,1,86.55,2.787V9.875a2.787,2.787,0,0,1-2.787,2.787H2.787A2.787,2.787,0,0,1,0,9.874V2.786A2.786,2.786,0,0,1,2.786,0Z" transform="translate(17.885 413.788) rotate(-0.118)" fill="#fff"/>
        <rect id="Rectangle_12" data-name="Rectangle 12" width="85.383" height="85.382" rx="5.106" transform="translate(14.89 52.14) rotate(-0.118)" fill="#fff"/>
        <rect id="Rectangle_13" data-name="Rectangle 13" width="236.932" height="16.538" rx="3.64" transform="matrix(1, -0.002, 0.002, 1, 132.343, 311.63)" fill="#fdddcc"/>
        <rect id="Rectangle_14" data-name="Rectangle 14" width="190.505" height="16.538" rx="3.64" transform="translate(165.978 59.327) rotate(-0.118)" fill="#fdddcc"/>
        <path id="Rectangle_15" data-name="Rectangle 15" d="M3.639,0H245.166a3.64,3.64,0,0,1,3.64,3.64V12.9a3.64,3.64,0,0,1-3.64,3.64H3.64A3.64,3.64,0,0,1,0,12.9V3.639A3.639,3.639,0,0,1,3.639,0Z" transform="matrix(1, -0.002, 0.002, 1, 384.206, 236.36)" fill="#fdddcc"/>
        <rect id="Rectangle_16" data-name="Rectangle 16" width="236.932" height="16.538" rx="3.64" transform="translate(132.414 345.82) rotate(-0.118)" fill="#fdddcc"/>
        <rect id="Rectangle_17" data-name="Rectangle 17" width="236.932" height="16.538" rx="3.64" transform="translate(132.484 380.011) rotate(-0.118)" fill="#fdddcc"/>
        <rect id="Rectangle_18" data-name="Rectangle 18" width="248.806" height="121.532" rx="6.012" transform="translate(384.331 297.33) rotate(-0.118)" fill="#fdddcc"/>
        <path id="Path_122" data-name="Path 122" d="M-537.715,48.73a5.454,5.454,0,0,1-5.442,5.463,5.451,5.451,0,0,1-5.463-5.442,5.452,5.452,0,0,1,5.44-5.463A5.454,5.454,0,0,1-537.715,48.73Z" transform="translate(575.059 -31.899)" fill="#f8b647"/>
        <circle id="Ellipse_3" data-name="Ellipse 3" cx="5.453" cy="5.453" r="5.453" transform="translate(49.522 11.341)" fill="#f8b647"/>
        <path id="Path_123" data-name="Path 123" d="M-516.133,48.685a5.452,5.452,0,0,1-5.442,5.463,5.454,5.454,0,0,1-5.464-5.442,5.454,5.454,0,0,1,5.442-5.463A5.452,5.452,0,0,1-516.133,48.685Z" transform="translate(599.645 -31.95)" fill="#f8b647"/>
        <circle id="Ellipse_4" data-name="Ellipse 4" cx="15.767" cy="15.767" r="15.767" transform="translate(124.492 81.763) rotate(-84.28)" fill="#fdddcc"/>
        <path id="Rectangle_19" data-name="Rectangle 19" d="M1.373,0H74.343a1.373,1.373,0,0,1,1.373,1.373V4.867A1.373,1.373,0,0,1,74.343,6.24H1.374A1.374,1.374,0,0,1,0,4.866V1.373A1.373,1.373,0,0,1,1.373,0Z" transform="translate(21.164 144.605) rotate(-0.118)" fill="#fff"/>
        <path id="Rectangle_20" data-name="Rectangle 20" d="M1.374,0H74.343a1.373,1.373,0,0,1,1.373,1.373V4.867A1.374,1.374,0,0,1,74.342,6.24H1.373A1.373,1.373,0,0,1,0,4.867V1.374A1.374,1.374,0,0,1,1.374,0Z" transform="matrix(1, -0.002, 0.002, 1, 21.192, 157.94)" fill="#fff"/>
        <path id="Path_124" data-name="Path 124" d="M-454.169,176.827l-19.751.2.145,82.741-17.041.034a10.888,10.888,0,0,1-10.912-10.867l-.317-153.007A11,11,0,0,1-491.061,84.9l36.676-.094Z" transform="translate(628.119 15.4)" fill="#fdddcc"/>
        <g id="Rectangle_21" data-name="Rectangle 21" transform="translate(126.053 100.324) rotate(-0.118)" fill="none" stroke="#c8dbfb" stroke-linecap="round" stroke-linejoin="round" stroke-width="1">
          <rect width="188.845" height="174.9" rx="6.012" stroke="none"/>
          <rect x="0.5" y="0.5" width="187.845" height="173.9" rx="5.512" fill="none"/>
        </g>
      </g>
      <rect id="Rectangle_22" data-name="Rectangle 22" width="248.806" height="136.755" rx="6.012" transform="translate(374.475 116.108) rotate(12.735)" fill="#fdddcc"/>
      <g id="Group_46" data-name="Group 46" transform="translate(109.402 557.256)">
        <path id="Path_125" data-name="Path 125" d="M-469.116,300.465l-30.448.063-7.45-38.79,45.189-.093Z" transform="translate(513.054 -261.644)" fill="#0056ec"/>
        <path id="Path_126" data-name="Path 126" d="M-503.034,261.707c.006,3.164-.6,8.48,1.51,8.557s1.237-5.042,3.639-4.905c1.532.088-.717,16.855,5.081,17.257,3.985.278,3.256-8.223,3.667-13.541.276-3.6,4.888-2.894,4.924-.513.043,2.665-.128,4.45,0,7.479.216,5.064,8,3.718,7.722-3.046s-.017-11.34-.017-11.34Z" transform="translate(517.503 -261.632)" fill="#c8dbfb"/>
        <g id="Group_45" data-name="Group 45" transform="translate(0 0.353)">
          <path id="Path_127" data-name="Path 127" d="M-502.657,284.961a8.255,8.255,0,0,1-1.8-.188,6.358,6.358,0,0,1-4.681-3.5c-3.1-6.58,5.07-18.913,5.389-19.46l.426,2.218c-.075.128-7.177,10.728-4.387,16.641a4.83,4.83,0,0,0,3.609,2.67,7.133,7.133,0,0,0,1.529.158c10.966-.021,29.711-20.459,29.917-20.694.766-.922,2.2-.053,1.69.721C-471.823,264.509-490.87,284.936-502.657,284.961Z" transform="translate(509.838 -261.809)" fill="#0c2340"/>
        </g>
      </g>
      <g id="Group_47" data-name="Group 47" transform="translate(350.421 1.366)">
        <path id="Path_128" data-name="Path 128" d="M-311.058,24.686c-43.271-1.654-102.845,30.349-81.712,108.6-.458,6.616,3.5,11.336,7.716,10.043s.5-13.83.5-13.83c7.2-58.177,20.682-68.242,43.56-68.032l53.672-.111c13.263,1.953,37.378,11.231,41,57.8l13.361,2.469C-231.923,87.985-240.067,27.4-311.058,24.686Z" transform="translate(397.169 24.239)" fill="#5275a0" opacity="0.2" style="mix-blend-mode: multiply;isolation: isolate"/>
        <path id="Path_129" data-name="Path 129" d="M-311.058,21.5c-43.271-1.654-102.845,30.349-81.712,108.6l8.217-3.786c7.2-58.177,20.682-68.242,43.56-68.032l53.672-.111c13.263,1.953,38.022,13.725,41.639,60.3l12.718-.026C-231.923,84.8-240.067,24.215-311.058,21.5Z" transform="translate(397.169 20.61)" fill="#ef832b"/>
        <path id="Path_130" data-name="Path 130" d="M-357.629,22.064l-6.428,14.127s.768,7.956,8.576,7.789,8.85-3.771,8.85-3.771l1.018-16.217Z" transform="translate(434.89 21.321)" fill="#ffb9a3"/>
        <path id="Path_131" data-name="Path 131" d="M-323.431,28.089C-330.757,41.04-334,45.072-343.584,47.019c-12.407,2.52-26.318-5.844-19.852-26.468,5.273-16.818,13.254-14.226,21.071-13.592S-315.516,14.094-323.431,28.089Z" transform="translate(433.73 3.516)" fill="#ffb9a3"/>
        <path id="Path_132" data-name="Path 132" d="M-351.545,23.166c-1.947-1.014-4.452-.152-5.964,1.44a6.537,6.537,0,0,0-1.643,6.246,5.677,5.677,0,0,0-5.346,5.97c-2.049-4.781-.941-9.753-1.346-14.645s.13-10.21,3.3-13.956a15.942,15.942,0,0,1,4.751-3.662,24.574,24.574,0,0,1,22.074-.312,13.412,13.412,0,0,0,9.93,1.741c9.453-2.285,14.983,4.105,9.3,10.093,1.823.659,3.825,1.472,4.651,3.226a1.453,1.453,0,0,1,.038,1.418,1.633,1.633,0,0,1-.866.539,10.3,10.3,0,0,1-4.974.394c.637.543,4.143.753,5.2,2.794,2.817,5.431-8.347,2.689-10.048,2.143,1.942.366,7.04,4.435,5.41,7.226-.323.552-7.207,4.563-14.444-3.842a13.218,13.218,0,0,0-6.276-4.426c-1.955-.522-4,.2-5.9.916-1.382.52-4.912,2.665-5.923,1.388C-350.721,26.452-349.29,24.287-351.545,23.166Z" transform="translate(432.721 -1.783)" fill="#0c2340"/>
        <path id="Path_133" data-name="Path 133" d="M-324.332,67.008c-1.917,6.6-3.857,7.258-1.532,8.311s4.206-2.65,4.206-2.65l10.734,2.135s-2.421-6.972-4.114-7.814S-324.332,67.008-324.332,67.008Z" transform="translate(477.188 72.078)" fill="#ffb9a3"/>
        <path id="Path_134" data-name="Path 134" d="M-386.9,70.464c1.4,3.483,1.788,3.5,3.741,7.693,3.735,8-5.012,20.654-10.443,6.839-1.487-3.786-1.515-10.745-1.515-10.745Z" transform="translate(399.512 76.458)" fill="#ffb9a3"/>
      </g>
      <g id="Group_49" data-name="Group 49" transform="translate(415.229 0)">
        <g id="Group_48" data-name="Group 48">
          <path id="Path_135" data-name="Path 135" d="M-351.765,5.171c4.129.4,8.018-1.044,12.076-1.476,3.513-.376,7.66.143,9.926,3.2.537.725,1.722.092,1.241-.725-1.96-3.318-5.838-4.417-9.494-4.178-4.64.306-9.049,2.278-13.749,1.957-.789-.053-.77,1.147,0,1.221Z" transform="translate(383.418 -0.214)" fill="#0c2340"/>
          <path id="Path_136" data-name="Path 136" d="M-336.876,2.051c-4.644,1.119-9.278-1.339-13.969-.839a21.248,21.248,0,0,0-11.716,5.553c-.774.7.246,2.054,1.123,1.457,3.635-2.475,7.522-4.944,12.072-4.993,4.351-.047,8.632,1.955,12.918.37a.8.8,0,0,0-.428-1.549Z" transform="translate(371.473 -1.144)" fill="#0c2340"/>
          <path id="Path_137" data-name="Path 137" d="M-360.81,4.81a11.992,11.992,0,0,0-4.379,4.043,13.154,13.154,0,0,0-1.634,5.637,25.727,25.727,0,0,0,.573,6.792c.306,1.613.4,4.122,2.306,4.666a.747.747,0,0,0,.573-1.358c-.616-.436-.729-1.367-.875-2.045-.193-.888-.381-1.778-.541-2.672a23.2,23.2,0,0,1-.419-5.545,11.183,11.183,0,0,1,4.9-8.651c.513-.37.06-1.2-.507-.866Z" transform="translate(366.873 2.942)" fill="#0c2340"/>
          <path id="Path_138" data-name="Path 138" d="M-333.164,12.824a8.789,8.789,0,0,0-4.206-3.816c-1.754-.762-4.114-1.134-5.827-.118a.64.64,0,0,0,.321,1.183c.832,0,1.671-.092,2.5-.062a8.082,8.082,0,0,1,2.379.477,7.576,7.576,0,0,1,3.863,2.9.561.561,0,0,0,.967-.567Z" transform="translate(393.501 6.974)" fill="#0c2340"/>
        </g>
      </g>
      <g id="Group_51" data-name="Group 51" transform="translate(132.422 266.459)">
        <path id="Path_139" data-name="Path 139" d="M-449.945,162.948c22.686,8.332,42.39,34.364,37.87,53.283-5.106,21.368-19.849,30.586-19.849,30.586l-4.646-8.58s11.787-18.427,10.762-27.129c-1.639-13.935-19.238-23.242-19.238-23.242Z" transform="translate(555.047 -83.279)" fill="#0b43a4"/>
        <path id="Path_140" data-name="Path 140" d="M-466.781,275.68s-13.935,5.628-17.417,8.8l27.6-.056-.019-8.768Z" transform="translate(516.026 45.122)" fill="#0c2340"/>
        <path id="Path_141" data-name="Path 141" d="M-440.012,275.419s3.955,4.586,4.683,9.177l-18.831.038a22.079,22.079,0,0,1,3.51-9.194Z" transform="translate(550.244 44.846)" fill="#0c2340"/>
        <path id="Path_142" data-name="Path 142" d="M-434.605,359.284l-12.857.021c.257-15.145-2.866-66.764-5.883-105.355-1.776-22.633-3.53-40.816-4.556-44.495l6.888-1.519,25.991-5.776C-420.572,222.483-430.84,315.794-434.605,359.284Z" transform="translate(545.984 -38.608)" fill="#047f76"/>
        <path id="Path_143" data-name="Path 143" d="M-460.144,205.764c-10.028,15.8-12.623,129.94-16.818,151.1l12.191.691a1106.837,1106.837,0,0,1,43.832-152.866Z" transform="translate(524.27 -35.732)" fill="#009790"/>
        <path id="Path_144" data-name="Path 144" d="M-437.514,204.681c-5.883,15.98-11.167,31.617-15.83,46.4-1.776-22.633-3.53-40.816-4.556-44.5l6.888-1.519Z" transform="translate(545.984 -35.738)" fill="#5275a0" opacity="0.2" style="mix-blend-mode: multiply;isolation: isolate"/>
        <path id="Path_145" data-name="Path 145" d="M-460.144,205.764c-10.028,15.8-12.623,129.94-16.818,151.1l12.191.691a1106.837,1106.837,0,0,1,43.832-152.866Z" transform="translate(524.27 -35.732)" fill="#009790"/>
        <path id="Path_146" data-name="Path 146" d="M-464.7,148.161S-472.5,177.906-453,177.868l-1.157,7.6,14.809,1.619-3.2-10.593s2.928-18.7,3.123-22.079C-439.06,148.109-456.732,137-464.7,148.161Z" transform="translate(536.485 -105.555)" fill="#ffb9a3"/>
        <g id="Group_50" data-name="Group 50" transform="translate(0 0)">
          <rect id="Rectangle_23" data-name="Rectangle 23" width="5.746" height="24.278" transform="translate(17.823 9.27) rotate(-0.113)" fill="#0c2340"/>
          <rect id="Rectangle_24" data-name="Rectangle 24" width="41.35" height="9.224" rx="1.954" transform="translate(0 0.082) rotate(-0.113)" fill="#0056ec"/>
        </g>
        <path id="Path_147" data-name="Path 147" d="M-489.9,152.449c-.156-5.506-4.7-4.064-2.195-13.049,1.547-5.555,13.019.892,11.59,4.745s-3.074,9.945-3.074,9.945Z" transform="translate(506.174 -112.569)" fill="#ffb9a3"/>
        <path id="Path_148" data-name="Path 148" d="M-421.468,183.96c-29.157,1.932-31.076,11.757-44.125,10.221-19.312-2.276-15.933-38.139-13.545-51l-11.536.021s-20.791,81.7,44.88,66.595c-2.52,14.313,13.811,37.684-2.024,66.049,24.93,6.77,48.191,8.435,68.109-.135-3.487-4.7,7.149-52.168-13.678-86.339C-397.451,182.7-419.333,183.819-421.468,183.96Z" transform="translate(505.088 -105.8)" fill="#0056ec"/>
        <path id="Path_149" data-name="Path 149" d="M-421.468,183.96c-29.157,1.932-31.076,11.757-44.125,10.221-19.312-2.276-15.933-38.139-13.545-51l-11.536.021s-20.791,81.7,44.88,66.595c-2.52,14.313,13.811,37.684-2.024,66.049,24.93,6.77,48.191,8.435,68.109-.135-3.487-4.7,7.149-52.168-13.678-86.339C-397.451,182.7-419.333,183.819-421.468,183.96Z" transform="translate(505.088 -105.8)" fill="#0056ec"/>
        <path id="Path_150" data-name="Path 150" d="M-456.718,157.623c1.9.486,4.114.851,5.13,2.466a6,6,0,0,1,.548,3.575,2.982,2.982,0,0,1,3.134-2.043,2.91,2.91,0,0,1,2.539,2.7,4.818,4.818,0,0,1-.421,1.806,21.6,21.6,0,0,1-2.171,4.129c2.385.875,4.377,7.842,5.571,10.007,4-1,12.914-4.443,13.693-18.63.361-6.608-1.654-14.521-8.822-18.921-5.061-3.106-13.464-3.151-19.259-1.671-4.7,1.2-12.2,5.893-8.7,11.383C-463.716,155.189-459.859,156.823-456.718,157.623Z" transform="translate(536.323 -109.319)" fill="#ef832b"/>
        <path id="Path_151" data-name="Path 151" d="M-446,144.293c2.715-.9,6.157-.426,7.787,1.844,1.271,1.767,1.157,4.09,1.568,6.2a4.825,4.825,0,0,0,1.35,2.76,5.808,5.808,0,0,0,3.6,1.108c3.138.169,6.315-.229,9.41.3s6.259,2.274,7.141,5.166c.488,1.6.222,3.356.806,4.927.877,2.355,3.384,3.692,5.568,5.061a36.3,36.3,0,0,1,11.451,11.4,20.665,20.665,0,0,1,3.425,9.455c.218,3.363,2.642,7.8,2,11.111-.7,3.57-4.208,8.4-11.143,10.632-11.986,3.857-15.783,5.528-27.268-1.3-1.384-.824-4.09-3.624-5.341-4.627a6.089,6.089,0,0,1-1.949-3.1c-.958-3.3.15-6.848,1.87-9.847s4.041-5.65,5.793-8.632a10.78,10.78,0,0,0,1.812-5.836,3.138,3.138,0,0,0-.789-2.124,3.573,3.573,0,0,0-1.859-.836c-2.52-.494-5.294.028-7.579-1.106a5.348,5.348,0,0,1-2.766-6.095c.449-1.542,1.617-2.843,1.951-4.413.479-2.257-.937-4.58-2.9-5.9a16.887,16.887,0,0,0-6.76-2.225,7.8,7.8,0,0,1-3.337-1.063,4.474,4.474,0,0,1-1.692-3.711C-453.814,149-450.2,145.69-446,144.293Z" transform="translate(550.583 -105.02)" fill="#ef832b"/>
      </g>
      <path id="Path_152" data-name="Path 152" d="M-451.146,149.48a7.164,7.164,0,0,1,6.437,7.044c-.062,2.687-1.645,5.055-2.8,7.476s-1.868,5.474-.317,7.665c1.354,1.912,3.955,2.458,6.3,2.424,2.7-.038,5.9-.46,7.645,1.6,1.408,1.656,1.106,4.169.325,6.2s-1.966,3.968-2.116,6.137" transform="translate(686.101 167.838)" fill="none" stroke="#ef832b" stroke-miterlimit="10" stroke-width="1"/>
      <path id="Path_153" data-name="Path 153" d="M-465.161,143.574a25.2,25.2,0,0,1,16.767-4.165,25.205,25.205,0,0,1,15.456,7.72" transform="translate(670.135 156.198)" fill="none" stroke="#ef832b" stroke-miterlimit="10" stroke-width="1"/>
      <g id="Group_52" data-name="Group 52" transform="translate(482.578 277.237)">
        <path id="Path_154" data-name="Path 154" d="M-287.859,157.711l-4.822,9.694,11.781,4.818,1.258-11.16Z" transform="translate(384.043 -100.023)" fill="#ffb9a3"/>
        <path id="Path_155" data-name="Path 155" d="M-278.5,142.96c-26.721,11.631-15.772,39.825.494,36.514,7.917-1.611,11.926-27.1,11.926-27.1Z" transform="translate(381.797 -116.827)" fill="#ffb9a3"/>
        <path id="Path_156" data-name="Path 156" d="M-276.269,144.067a13.948,13.948,0,0,0-3.16-4.539c-1.446-1.164-3.741-1.534-5.1-.27-1.8,1.673-.747,4.8,1.076,6.447-1.568.19-3.429-.892-4.584.184-.875.817-.571,2.263-.068,3.35a14.916,14.916,0,0,0,5.474,6.276c-1.354.77-2.924,2.257-2.114,3.587.225.368.6.625.826.995.518.862.017,1.959-.5,2.822q-1.264,2.086-2.723,4.047c.918-1.26,3.155-.742,3.829.663a4.075,4.075,0,0,1-.952,4.3,4.26,4.26,0,0,1-2.156,1.378c-.736.169-3.972,10.18-1.446,12.142,3.123,2.424,13.742.319,15.278-2.419,1.536,1.666,3.786,2.929,6.009,2.488s3.921-3.185,2.721-5.108a6.416,6.416,0,0,0,6.965-1.861,6.423,6.423,0,0,0,.575-7.188c1.309-.394,1.572-2.167,1.239-3.493a8.072,8.072,0,0,0-5.53-5.682,2.734,2.734,0,0,0,2.49-2.691,5.621,5.621,0,0,0-1.491-3.675c-2.509-3.1-5.481-3.923-9.186-4.39C-272.547,150.962-274.611,147.148-276.269,144.067Z" transform="translate(388.441 -121.945)" fill="#4a49ca"/>
        <path id="Path_157" data-name="Path 157" d="M-285.215,274.814s-15.635,7.508-17.734,9.849c0,0,30.764,1.384,33.17-.068s-4.924-9.8-4.924-9.8Z" transform="translate(372.346 33.355)" fill="#0c2340"/>
        <path id="Path_158" data-name="Path 158" d="M-259.316,272.007s-13.742,10.58-15.31,13.3c0,0,32.439-4.815,32.439-6.933s-6.85-8.569-6.85-8.569Z" transform="translate(404.611 27.676)" fill="#0c2340"/>
        <path id="Path_159" data-name="Path 159" d="M-285.417,211.81c-.578,3.179-21.984,87.687,39.265,138.354l17.742-4.069s-20.647-19.368-30.379-54.22c-9.2-32.956-1.9-36.191,3.624-54.344,6.11-20.091,1.564-34.676,1.564-34.676Z" transform="translate(387.665 -48.595)" fill="#d8742a"/>
        <path id="Path_160" data-name="Path 160" d="M-294.684,207.923c-9.71,23.2-26.38,102.287,9.952,146.814l18.144-.036s-14.292-15.665-15.89-52.006,7.641-52.294,14.159-64.285,12.546-32.37,12.546-32.37Z" transform="translate(367.66 -44.966)" fill="#ef832b"/>
        <path id="Path_161" data-name="Path 161" d="M-305.71,139.67c-4.822,16.994-6.407,48.39,17.736,61.039l16.162-3.94S-300.944,181.5-294.7,142.9Z" transform="translate(365.883 -120.575)" fill="#0b43a4"/>
        <path id="Path_162" data-name="Path 162" d="M-327.954,136.429l12.544-1.549s-1.51,52.673,59.322,57.11C-209.653,195.374-206,282.516-206,282.516c-14.974,10.08-40.1,13.132-72.294,10.822,0,0,2.06-62.167-3.055-79.184C-281.352,214.154-331.893,198.251-327.954,136.429Z" transform="translate(343.611 -126.031)" fill="#0056ec"/>
        <path id="Path_163" data-name="Path 163" d="M-335.071,131.579c-2.122,2.462,6.741,5.583,15.338,9.562l11.008-1.358a43.351,43.351,0,0,0-.009-4.492c-.139-2.291-1.288-3.6-2.593-1.632s-6.871,2.635-9.494.839S-332.947,129.119-335.071,131.579Z" transform="translate(335.39 -130.743)" fill="#ffb9a3"/>
        <path id="Path_164" data-name="Path 164" d="M-305.614,143.461c-4.035-3.966-2.963-3.724-2.963-3.724l12.3,2.781s2.706-6,5-6.172-1.726,4.137-.807,5.731-2.524,4.61-2.524,4.61Z" transform="translate(365.787 -124.366)" fill="#ffb9a3"/>
      </g>
      <path id="Path_165" data-name="Path 165" d="M-279.653,143.537c2.935.171,6.011.811,8.189,2.785s3.048,5.613,1.215,7.913" transform="translate(881.463 161.067)" fill="none" stroke="#4a49ca" stroke-miterlimit="10" stroke-width="1"/>
      <path id="Path_166" data-name="Path 166" d="M-273.423,154.2a5.168,5.168,0,0,1,2.961,3.669,4.9,4.9,0,0,1-1.395,3.806,14.531,14.531,0,0,1-3.337,2.5" transform="translate(886.542 173.21)" fill="none" stroke="#4a49ca" stroke-miterlimit="10" stroke-width="1"/>
      <path id="Path_167" data-name="Path 167" d="M-287.549,161.389a15.258,15.258,0,0,0,17.593-2.156" transform="translate(872.468 178.948)" fill="none" stroke="#4a49ca" stroke-miterlimit="10" stroke-width="1"/>
      <path id="Path_168" data-name="Path 168" d="M-273.117,145.457c1.761,1.074,2.225,3.543,1.609,5.511a14.077,14.077,0,0,1-3.45,5.07" transform="translate(886.81 163.255)" fill="none" stroke="#4a49ca" stroke-miterlimit="10" stroke-width="1"/>
    </g>
    <g id="Group_54" data-name="Group 54" transform="translate(-252.771 -51.468)">
      <path id="Path_169" data-name="Path 169" d="M-440.661-20.833l-5.019-12.255,48.409-18.38Z" transform="translate(456.76 51.468)" fill="#0b43a4"/>
      <path id="Path_170" data-name="Path 170" d="M-442.195-28.386l40.953-23.082-28.507,28.953Z" transform="translate(460.73 51.468)" fill="#5193f4"/>
      <path id="Path_171" data-name="Path 171" d="M-450.859-38.079l59.489-13.389-48.41,18.38Z" transform="translate(450.859 51.468)" fill="#5193f4"/>
      <path id="Path_172" data-name="Path 172" d="M-440.9-40.678l-2.437,7.553,7.389-5.217Z" transform="translate(459.432 63.76)" fill="#0056ec"/>
    </g>
    <path id="Path_173" data-name="Path 173" d="M-431.106-37.788c-12.638-2.137-29.795,10.642-22.414,23.957,2.514,4.533,15.47,2.565,14.506-2.445-.462-2.4-3.4-3.418-5.825-3.14C-458.967-17.8-459.527-5.957-458.9-2.943c3.232,15.573,27.1,10.3,35.123,8.108" transform="translate(188.746 15.316)" fill="none" stroke="#c8dbfb" stroke-linecap="round" stroke-linejoin="round" stroke-width="1" stroke-dasharray="4"/>
  </g>
</svg>
